--
-- PostgreSQL database dump
--

-- Dumped from database version 12.9 (Ubuntu 12.9-0ubuntu0.20.04.1)
-- Dumped by pg_dump version 12.9 (Ubuntu 12.9-0ubuntu0.20.04.1)

SET statement_timeout = 0;
SET lock_timeout = 0;
SET idle_in_transaction_session_timeout = 0;
SET client_encoding = 'UTF8';
SET standard_conforming_strings = on;
SELECT pg_catalog.set_config('search_path', '', false);
SET check_function_bodies = false;
SET xmloption = content;
SET client_min_messages = warning;
SET row_security = off;

SET default_tablespace = '';

SET default_table_access_method = heap;

--
-- Name: launches; Type: TABLE; Schema: public; Owner: dzhiblavi
--

CREATE TABLE public.launches (
    launch_id integer NOT NULL,
    input_path character varying(512) NOT NULL,
    config_path character varying(512) NOT NULL,
    log_path character varying(512) NOT NULL,
    commit_hash character varying(128),
    result character varying(16),
    started_at timestamp without time zone,
    finished_at timestamp without time zone,
    description character varying(512),
    config text,
    _log text
);


ALTER TABLE public.launches OWNER TO dzhiblavi;

--
-- Name: launches_launch_id_seq; Type: SEQUENCE; Schema: public; Owner: dzhiblavi
--

CREATE SEQUENCE public.launches_launch_id_seq
    AS integer
    START WITH 1
    INCREMENT BY 1
    NO MINVALUE
    NO MAXVALUE
    CACHE 1;


ALTER TABLE public.launches_launch_id_seq OWNER TO dzhiblavi;

--
-- Name: launches_launch_id_seq; Type: SEQUENCE OWNED BY; Schema: public; Owner: dzhiblavi
--

ALTER SEQUENCE public.launches_launch_id_seq OWNED BY public.launches.launch_id;


--
-- Name: launches launch_id; Type: DEFAULT; Schema: public; Owner: dzhiblavi
--

ALTER TABLE ONLY public.launches ALTER COLUMN launch_id SET DEFAULT nextval('public.launches_launch_id_seq'::regclass);


--
-- Data for Name: launches; Type: TABLE DATA; Schema: public; Owner: dzhiblavi
--

COPY public.launches (launch_id, input_path, config_path, log_path, commit_hash, result, started_at, finished_at, description, config, _log) FROM stdin;
13	./resources/cnf/unsat_dubois20.cnf	./resources/config/naive.json	./artifacts-infra/logs/1642104718-1585879586.txt	de855d1ee48b9b1956f716a05c6009a832917e15	PASSED	1970-01-01 03:41:21	1970-01-01 03:41:21	Naive solver tests (no RBS)	{\n    "solve_type": "NaiveSolve",\n    "naive_solve_config": {\n        "solver_config": {\n            "solver_type": "SimpSolver",\n            "simp_solver_config": {\n                "use_asymm": false,\n                "use_rcheck": false,\n                "use_elim": true,\n                "grow": 0,\n                "clause_lim": 20,\n                "subsumption_lim": 1000,\n                "simp_garbage_frac": 0.5,\n                "minisat_cli_config": {\n                    "verbosity_level": 0,\n                    "preprocessing": true,\n                    "cpu_limit": 0,\n                    "mem_limit": 0\n                },\n                "base_solver_config": {\n                    "var_decay": 0.95,\n                    "cla_decay": 0.999,\n                    "rnd_freq": 0,\n                    "rnd_seed": 91648253,\n                    "ccmin_mode": 2,\n                    "phase_saving": 2,\n                    "rnd_init": false,\n                    "luby": true,\n                    "rfirst": 100,\n                    "rinc": 2,\n                    "gc_frac": 0.20,\n                    "min_learnts": 0\n                }\n            }\n        }\n    }\n}\n	solve_limited: [\b]\nUNSAT\n 68722 main.cpp:52] \nI20220113 23:11:58.610149 68722 main.cpp:63] Input file: "./resources/cnf/unsat_dubois20.cnf"\nI20220113 23:11:58.610770 68722 Tracer.cpp:8] Registered event: Resolve NaiveSolve\nI20220113 23:11:58.610790 68722 Tracer.cpp:8] Registered event: Resolve SimpSolver\nI20220113 23:11:58.610855 68722 SimpSolver.cpp:46] Stats before preprocess: 160 60\nI20220113 23:11:58.610971 68722 Tracer.cpp:28] solver->parse_cnf(input) took 0.000175765s\nI20220113 23:11:58.611156 68722 Tracer.cpp:28] SimpSolver::solve_limited took 1.48e-07s\nI20220113 23:11:58.611171 68722 Tracer.cpp:28] solver->solve_limited() took 0.000186927s\nI20220113 23:11:58.611178 68722 Tracer.cpp:28] solve->solve(input) took 0.000397857s\nI20220113 23:11:58.611188 68722 Tracer.cpp:81] Tracing summary:\n\t[Quantiles]\tsolve->solve(input): total samples: 1 total time: 0.00040s\n\t\tMin: 0.00040s Max: 0.00040s\n\t\t[ 0.00040 ]\n\t[Quantiles]\tsolver->solve_limited(): total samples: 1 total time: 0.00019s\n\t\tMin: 0.00019s Max: 0.00019s\n\t\t[ 0.00019 ]\n\t[Quantiles]\tSimpSolver::solve_limited: total samples: 1 total time: 0.00000s\n\t\tMin: 0.00000s Max: 0.00000s\n\t\t[ 0.00000 ]\n\t[Quantiles]\tsolver->parse_cnf(input): total samples: 1 total time: 0.00018s\n\t\tMin: 0.00018s Max: 0.00018s\n\t\t[ 0.00018 ]\n\t[Event]\t\tResolve SimpSolver: total samples: 1\n\t[Event]\t\tResolve NaiveSolve: total samples: 1\nI20220113 23:11:58.611191 68722 main.cpp:73] UNSAT\n
14	./resources/cnf/unsat_hole6.cnf	./resources/config/naive.json	./artifacts-infra/logs/1642104718-821351562.txt	de855d1ee48b9b1956f716a05c6009a832917e15	PASSED	1970-01-01 03:41:21	1970-01-01 03:41:21	Naive solver tests (no RBS)	{\n    "solve_type": "NaiveSolve",\n    "naive_solve_config": {\n        "solver_config": {\n            "solver_type": "SimpSolver",\n            "simp_solver_config": {\n                "use_asymm": false,\n                "use_rcheck": false,\n                "use_elim": true,\n                "grow": 0,\n                "clause_lim": 20,\n                "subsumption_lim": 1000,\n                "simp_garbage_frac": 0.5,\n                "minisat_cli_config": {\n                    "verbosity_level": 0,\n                    "preprocessing": true,\n                    "cpu_limit": 0,\n                    "mem_limit": 0\n                },\n                "base_solver_config": {\n                    "var_decay": 0.95,\n                    "cla_decay": 0.999,\n                    "rnd_freq": 0,\n                    "rnd_seed": 91648253,\n                    "ccmin_mode": 2,\n                    "phase_saving": 2,\n                    "rnd_init": false,\n                    "luby": true,\n                    "rfirst": 100,\n                    "rinc": 2,\n                    "gc_frac": 0.20,\n                    "min_learnts": 0\n                }\n            }\n        }\n    }\n}\n	solve_limited: [\b]\nUNSAT\n 68725 main.cpp:52] \nI20220113 23:11:58.610709 68725 main.cpp:63] Input file: "./resources/cnf/unsat_hole6.cnf"\nI20220113 23:11:58.611402 68725 Tracer.cpp:8] Registered event: Resolve NaiveSolve\nI20220113 23:11:58.611419 68725 Tracer.cpp:8] Registered event: Resolve SimpSolver\nI20220113 23:11:58.611471 68725 SimpSolver.cpp:46] Stats before preprocess: 133 42\nI20220113 23:11:58.611552 68725 Tracer.cpp:28] solver->parse_cnf(input) took 0.000127644s\nI20220113 23:11:58.614617 68725 Tracer.cpp:28] SimpSolver::solve_limited took 0.00290863s\nI20220113 23:11:58.614634 68725 Tracer.cpp:28] solver->solve_limited() took 0.00306767s\nI20220113 23:11:58.614645 68725 Tracer.cpp:28] solve->solve(input) took 0.00323202s\nI20220113 23:11:58.614653 68725 Tracer.cpp:81] Tracing summary:\n\t[Quantiles]\tsolve->solve(input): total samples: 1 total time: 0.00323s\n\t\tMin: 0.00323s Max: 0.00323s\n\t\t[ 0.00323 ]\n\t[Quantiles]\tsolver->solve_limited(): total samples: 1 total time: 0.00307s\n\t\tMin: 0.00307s Max: 0.00307s\n\t\t[ 0.00307 ]\n\t[Quantiles]\tSimpSolver::solve_limited: total samples: 1 total time: 0.00291s\n\t\tMin: 0.00291s Max: 0.00291s\n\t\t[ 0.00291 ]\n\t[Quantiles]\tsolver->parse_cnf(input): total samples: 1 total time: 0.00013s\n\t\tMin: 0.00013s Max: 0.00013s\n\t\t[ 0.00013 ]\n\t[Event]\t\tResolve SimpSolver: total samples: 1\n\t[Event]\t\tResolve NaiveSolve: total samples: 1\nI20220113 23:11:58.614656 68725 main.cpp:73] UNSAT\n
15	./resources/cnf/sat_quinn.cnf	./resources/config/naive.json	./artifacts-infra/logs/1642104718-988892488.txt	de855d1ee48b9b1956f716a05c6009a832917e15	PASSED	1970-01-01 03:41:21	1970-01-01 03:41:21	Naive solver tests (no RBS)	{\n    "solve_type": "NaiveSolve",\n    "naive_solve_config": {\n        "solver_config": {\n            "solver_type": "SimpSolver",\n            "simp_solver_config": {\n                "use_asymm": false,\n                "use_rcheck": false,\n                "use_elim": true,\n                "grow": 0,\n                "clause_lim": 20,\n                "subsumption_lim": 1000,\n                "simp_garbage_frac": 0.5,\n                "minisat_cli_config": {\n                    "verbosity_level": 0,\n                    "preprocessing": true,\n                    "cpu_limit": 0,\n                    "mem_limit": 0\n                },\n                "base_solver_config": {\n                    "var_decay": 0.95,\n                    "cla_decay": 0.999,\n                    "rnd_freq": 0,\n                    "rnd_seed": 91648253,\n                    "ccmin_mode": 2,\n                    "phase_saving": 2,\n                    "rnd_init": false,\n                    "luby": true,\n                    "rfirst": 100,\n                    "rinc": 2,\n                    "gc_frac": 0.20,\n                    "min_learnts": 0\n                }\n            }\n        }\n    }\n}\n	solve_limited: [\b]\nSAT\n44 68727 main.cpp:52] \nI20220113 23:11:58.611025 68727 main.cpp:63] Input file: "./resources/cnf/sat_quinn.cnf"\nI20220113 23:11:58.611589 68727 Tracer.cpp:8] Registered event: Resolve NaiveSolve\nI20220113 23:11:58.611608 68727 Tracer.cpp:8] Registered event: Resolve SimpSolver\nI20220113 23:11:58.611636 68727 SimpSolver.cpp:46] Stats before preprocess: 18 16\nI20220113 23:11:58.611657 68727 Tracer.cpp:28] solver->parse_cnf(input) took 4.3914e-05s\nI20220113 23:11:58.611701 68727 Tracer.cpp:28] SimpSolver::solve_limited took 4.026e-06s\nI20220113 23:11:58.611712 68727 Tracer.cpp:28] solver->solve_limited() took 4.456e-05s\nI20220113 23:11:58.611718 68727 Tracer.cpp:28] solve->solve(input) took 0.000117886s\nI20220113 23:11:58.611728 68727 Tracer.cpp:81] Tracing summary:\n\t[Quantiles]\tsolve->solve(input): total samples: 1 total time: 0.00012s\n\t\tMin: 0.00012s Max: 0.00012s\n\t\t[ 0.00012 ]\n\t[Quantiles]\tsolver->solve_limited(): total samples: 1 total time: 0.00004s\n\t\tMin: 0.00004s Max: 0.00004s\n\t\t[ 0.00004 ]\n\t[Quantiles]\tSimpSolver::solve_limited: total samples: 1 total time: 0.00000s\n\t\tMin: 0.00000s Max: 0.00000s\n\t\t[ 0.00000 ]\n\t[Quantiles]\tsolver->parse_cnf(input): total samples: 1 total time: 0.00004s\n\t\tMin: 0.00004s Max: 0.00004s\n\t\t[ 0.00004 ]\n\t[Event]\t\tResolve SimpSolver: total samples: 1\n\t[Event]\t\tResolve NaiveSolve: total samples: 1\nI20220113 23:11:58.611732 68727 main.cpp:77] SAT\n
16	./resources/cnf/unsat_aim-100-1_6-no-1.cnf	./resources/config/naive.json	./artifacts-infra/logs/16421047182062570182.txt	de855d1ee48b9b1956f716a05c6009a832917e15	PASSED	1970-01-01 03:41:21	1970-01-01 03:41:21	Naive solver tests (no RBS)	{\n    "solve_type": "NaiveSolve",\n    "naive_solve_config": {\n        "solver_config": {\n            "solver_type": "SimpSolver",\n            "simp_solver_config": {\n                "use_asymm": false,\n                "use_rcheck": false,\n                "use_elim": true,\n                "grow": 0,\n                "clause_lim": 20,\n                "subsumption_lim": 1000,\n                "simp_garbage_frac": 0.5,\n                "minisat_cli_config": {\n                    "verbosity_level": 0,\n                    "preprocessing": true,\n                    "cpu_limit": 0,\n                    "mem_limit": 0\n                },\n                "base_solver_config": {\n                    "var_decay": 0.95,\n                    "cla_decay": 0.999,\n                    "rnd_freq": 0,\n                    "rnd_seed": 91648253,\n                    "ccmin_mode": 2,\n                    "phase_saving": 2,\n                    "rnd_init": false,\n                    "luby": true,\n                    "rfirst": 100,\n                    "rinc": 2,\n                    "gc_frac": 0.20,\n                    "min_learnts": 0\n                }\n            }\n        }\n    }\n}\n	solve_limited: [\b]\nUNSAT\n 68730 main.cpp:52] \nI20220113 23:11:58.611384 68730 main.cpp:63] Input file: "./resources/cnf/unsat_aim-100-1_6-no-1.cnf"\nI20220113 23:11:58.611943 68730 Tracer.cpp:8] Registered event: Resolve NaiveSolve\nI20220113 23:11:58.611958 68730 Tracer.cpp:8] Registered event: Resolve SimpSolver\nI20220113 23:11:58.612035 68730 SimpSolver.cpp:46] Stats before preprocess: 160 100\nI20220113 23:11:58.612215 68730 Tracer.cpp:28] solver->parse_cnf(input) took 0.000251155s\nI20220113 23:11:58.612478 68730 Tracer.cpp:28] SimpSolver::solve_limited took 1.4884e-05s\nI20220113 23:11:58.612489 68730 Tracer.cpp:28] solver->solve_limited() took 0.000264404s\nI20220113 23:11:58.612501 68730 Tracer.cpp:28] solve->solve(input) took 0.000547613s\nI20220113 23:11:58.612511 68730 Tracer.cpp:81] Tracing summary:\n\t[Quantiles]\tsolve->solve(input): total samples: 1 total time: 0.00055s\n\t\tMin: 0.00055s Max: 0.00055s\n\t\t[ 0.00055 ]\n\t[Quantiles]\tsolver->solve_limited(): total samples: 1 total time: 0.00026s\n\t\tMin: 0.00026s Max: 0.00026s\n\t\t[ 0.00026 ]\n\t[Quantiles]\tSimpSolver::solve_limited: total samples: 1 total time: 0.00001s\n\t\tMin: 0.00001s Max: 0.00001s\n\t\t[ 0.00001 ]\n\t[Quantiles]\tsolver->parse_cnf(input): total samples: 1 total time: 0.00025s\n\t\tMin: 0.00025s Max: 0.00025s\n\t\t[ 0.00025 ]\n\t[Event]\t\tResolve SimpSolver: total samples: 1\n\t[Event]\t\tResolve NaiveSolve: total samples: 1\nI20220113 23:11:58.612514 68730 main.cpp:73] UNSAT\n
17	./resources/cnf/unsat_bf0432-007.cnf	./resources/config/naive.json	./artifacts-infra/logs/16421047181174068388.txt	de855d1ee48b9b1956f716a05c6009a832917e15	PASSED	1970-01-01 03:41:21	1970-01-01 03:41:21	Naive solver tests (no RBS)	{\n    "solve_type": "NaiveSolve",\n    "naive_solve_config": {\n        "solver_config": {\n            "solver_type": "SimpSolver",\n            "simp_solver_config": {\n                "use_asymm": false,\n                "use_rcheck": false,\n                "use_elim": true,\n                "grow": 0,\n                "clause_lim": 20,\n                "subsumption_lim": 1000,\n                "simp_garbage_frac": 0.5,\n                "minisat_cli_config": {\n                    "verbosity_level": 0,\n                    "preprocessing": true,\n                    "cpu_limit": 0,\n                    "mem_limit": 0\n                },\n                "base_solver_config": {\n                    "var_decay": 0.95,\n                    "cla_decay": 0.999,\n                    "rnd_freq": 0,\n                    "rnd_seed": 91648253,\n                    "ccmin_mode": 2,\n                    "phase_saving": 2,\n                    "rnd_init": false,\n                    "luby": true,\n                    "rfirst": 100,\n                    "rinc": 2,\n                    "gc_frac": 0.20,\n                    "min_learnts": 0\n                }\n            }\n        }\n    }\n}\n	solve_limited: [\b]\nUNSAT\n 68734 main.cpp:52] \nI20220113 23:11:58.611770 68734 main.cpp:63] Input file: "./resources/cnf/unsat_bf0432-007.cnf"\nI20220113 23:11:58.612324 68734 Tracer.cpp:8] Registered event: Resolve NaiveSolve\nI20220113 23:11:58.612342 68734 Tracer.cpp:8] Registered event: Resolve SimpSolver\nI20220113 23:11:58.613224 68734 SimpSolver.cpp:46] Stats before preprocess: 3369 1040\nI20220113 23:11:58.615031 68734 Tracer.cpp:28] solver->parse_cnf(input) took 0.00268296s\nI20220113 23:11:58.619882 68734 Tracer.cpp:28] SimpSolver::solve_limited took 0.00229865s\nI20220113 23:11:58.619896 68734 Tracer.cpp:28] solver->solve_limited() took 0.00485259s\nI20220113 23:11:58.619946 68734 Tracer.cpp:28] solve->solve(input) took 0.00760967s\nI20220113 23:11:58.619956 68734 Tracer.cpp:81] Tracing summary:\n\t[Quantiles]\tsolve->solve(input): total samples: 1 total time: 0.00761s\n\t\tMin: 0.00761s Max: 0.00761s\n\t\t[ 0.00761 ]\n\t[Quantiles]\tsolver->solve_limited(): total samples: 1 total time: 0.00485s\n\t\tMin: 0.00485s Max: 0.00485s\n\t\t[ 0.00485 ]\n\t[Quantiles]\tSimpSolver::solve_limited: total samples: 1 total time: 0.00230s\n\t\tMin: 0.00230s Max: 0.00230s\n\t\t[ 0.00230 ]\n\t[Quantiles]\tsolver->parse_cnf(input): total samples: 1 total time: 0.00268s\n\t\tMin: 0.00268s Max: 0.00268s\n\t\t[ 0.00268 ]\n\t[Event]\t\tResolve SimpSolver: total samples: 1\n\t[Event]\t\tResolve NaiveSolve: total samples: 1\nI20220113 23:11:58.619958 68734 main.cpp:73] UNSAT\n
18	./resources/cnf/sat_simple_v3_c2.cnf	./resources/config/naive.json	./artifacts-infra/logs/1642104718-1746969011.txt	de855d1ee48b9b1956f716a05c6009a832917e15	PASSED	1970-01-01 03:41:21	1970-01-01 03:41:21	Naive solver tests (no RBS)	{\n    "solve_type": "NaiveSolve",\n    "naive_solve_config": {\n        "solver_config": {\n            "solver_type": "SimpSolver",\n            "simp_solver_config": {\n                "use_asymm": false,\n                "use_rcheck": false,\n                "use_elim": true,\n                "grow": 0,\n                "clause_lim": 20,\n                "subsumption_lim": 1000,\n                "simp_garbage_frac": 0.5,\n                "minisat_cli_config": {\n                    "verbosity_level": 0,\n                    "preprocessing": true,\n                    "cpu_limit": 0,\n                    "mem_limit": 0\n                },\n                "base_solver_config": {\n                    "var_decay": 0.95,\n                    "cla_decay": 0.999,\n                    "rnd_freq": 0,\n                    "rnd_seed": 91648253,\n                    "ccmin_mode": 2,\n                    "phase_saving": 2,\n                    "rnd_init": false,\n                    "luby": true,\n                    "rfirst": 100,\n                    "rinc": 2,\n                    "gc_frac": 0.20,\n                    "min_learnts": 0\n                }\n            }\n        }\n    }\n}\n	solve_limited: [\b]\nSAT\n67 68737 main.cpp:52] \nI20220113 23:11:58.612149 68737 main.cpp:63] Input file: "./resources/cnf/sat_simple_v3_c2.cnf"\nI20220113 23:11:58.612695 68737 Tracer.cpp:8] Registered event: Resolve NaiveSolve\nI20220113 23:11:58.612710 68737 Tracer.cpp:8] Registered event: Resolve SimpSolver\nI20220113 23:11:58.612730 68737 SimpSolver.cpp:46] Stats before preprocess: 2 3\nI20220113 23:11:58.612742 68737 Tracer.cpp:28] solver->parse_cnf(input) took 2.6872e-05s\nI20220113 23:11:58.612771 68737 Tracer.cpp:28] SimpSolver::solve_limited took 3.426e-06s\nI20220113 23:11:58.612782 68737 Tracer.cpp:28] solver->solve_limited() took 2.9936e-05s\nI20220113 23:11:58.612787 68737 Tracer.cpp:28] solve->solve(input) took 8.212e-05s\nI20220113 23:11:58.612797 68737 Tracer.cpp:81] Tracing summary:\n\t[Quantiles]\tsolve->solve(input): total samples: 1 total time: 0.00008s\n\t\tMin: 0.00008s Max: 0.00008s\n\t\t[ 0.00008 ]\n\t[Quantiles]\tsolver->solve_limited(): total samples: 1 total time: 0.00003s\n\t\tMin: 0.00003s Max: 0.00003s\n\t\t[ 0.00003 ]\n\t[Quantiles]\tSimpSolver::solve_limited: total samples: 1 total time: 0.00000s\n\t\tMin: 0.00000s Max: 0.00000s\n\t\t[ 0.00000 ]\n\t[Quantiles]\tsolver->parse_cnf(input): total samples: 1 total time: 0.00003s\n\t\tMin: 0.00003s Max: 0.00003s\n\t\t[ 0.00003 ]\n\t[Event]\t\tResolve SimpSolver: total samples: 1\n\t[Event]\t\tResolve NaiveSolve: total samples: 1\nI20220113 23:11:58.612799 68737 main.cpp:77] SAT\n
19	./resources/cnf/unsat_dubois22.cnf	./resources/config/naive.json	./artifacts-infra/logs/16421047181554208158.txt	de855d1ee48b9b1956f716a05c6009a832917e15	PASSED	1970-01-01 03:41:21	1970-01-01 03:41:21	Naive solver tests (no RBS)	{\n    "solve_type": "NaiveSolve",\n    "naive_solve_config": {\n        "solver_config": {\n            "solver_type": "SimpSolver",\n            "simp_solver_config": {\n                "use_asymm": false,\n                "use_rcheck": false,\n                "use_elim": true,\n                "grow": 0,\n                "clause_lim": 20,\n                "subsumption_lim": 1000,\n                "simp_garbage_frac": 0.5,\n                "minisat_cli_config": {\n                    "verbosity_level": 0,\n                    "preprocessing": true,\n                    "cpu_limit": 0,\n                    "mem_limit": 0\n                },\n                "base_solver_config": {\n                    "var_decay": 0.95,\n                    "cla_decay": 0.999,\n                    "rnd_freq": 0,\n                    "rnd_seed": 91648253,\n                    "ccmin_mode": 2,\n                    "phase_saving": 2,\n                    "rnd_init": false,\n                    "luby": true,\n                    "rfirst": 100,\n                    "rinc": 2,\n                    "gc_frac": 0.20,\n                    "min_learnts": 0\n                }\n            }\n        }\n    }\n}\n	solve_limited: [\b]\nUNSAT\n 68740 main.cpp:52] \nI20220113 23:11:58.612586 68740 main.cpp:63] Input file: "./resources/cnf/unsat_dubois22.cnf"\nI20220113 23:11:58.613147 68740 Tracer.cpp:8] Registered event: Resolve NaiveSolve\nI20220113 23:11:58.613162 68740 Tracer.cpp:8] Registered event: Resolve SimpSolver\nI20220113 23:11:58.613229 68740 SimpSolver.cpp:46] Stats before preprocess: 176 66\nI20220113 23:11:58.613358 68740 Tracer.cpp:28] solver->parse_cnf(input) took 0.000189199s\nI20220113 23:11:58.613538 68740 Tracer.cpp:28] SimpSolver::solve_limited took 1.59e-07s\nI20220113 23:11:58.613551 68740 Tracer.cpp:28] solver->solve_limited() took 0.000179834s\nI20220113 23:11:58.613560 68740 Tracer.cpp:28] solve->solve(input) took 0.000403175s\nI20220113 23:11:58.613570 68740 Tracer.cpp:81] Tracing summary:\n\t[Quantiles]\tsolve->solve(input): total samples: 1 total time: 0.00040s\n\t\tMin: 0.00040s Max: 0.00040s\n\t\t[ 0.00040 ]\n\t[Quantiles]\tsolver->solve_limited(): total samples: 1 total time: 0.00018s\n\t\tMin: 0.00018s Max: 0.00018s\n\t\t[ 0.00018 ]\n\t[Quantiles]\tSimpSolver::solve_limited: total samples: 1 total time: 0.00000s\n\t\tMin: 0.00000s Max: 0.00000s\n\t\t[ 0.00000 ]\n\t[Quantiles]\tsolver->parse_cnf(input): total samples: 1 total time: 0.00019s\n\t\tMin: 0.00019s Max: 0.00019s\n\t\t[ 0.00019 ]\n\t[Event]\t\tResolve SimpSolver: total samples: 1\n\t[Event]\t\tResolve NaiveSolve: total samples: 1\nI20220113 23:11:58.613574 68740 main.cpp:73] UNSAT\n
20	./resources/cnf/sat_par8-1-c.cnf	./resources/config/naive.json	./artifacts-infra/logs/1642104718-1927720257.txt	de855d1ee48b9b1956f716a05c6009a832917e15	PASSED	1970-01-01 03:41:21	1970-01-01 03:41:21	Naive solver tests (no RBS)	{\n    "solve_type": "NaiveSolve",\n    "naive_solve_config": {\n        "solver_config": {\n            "solver_type": "SimpSolver",\n            "simp_solver_config": {\n                "use_asymm": false,\n                "use_rcheck": false,\n                "use_elim": true,\n                "grow": 0,\n                "clause_lim": 20,\n                "subsumption_lim": 1000,\n                "simp_garbage_frac": 0.5,\n                "minisat_cli_config": {\n                    "verbosity_level": 0,\n                    "preprocessing": true,\n                    "cpu_limit": 0,\n                    "mem_limit": 0\n                },\n                "base_solver_config": {\n                    "var_decay": 0.95,\n                    "cla_decay": 0.999,\n                    "rnd_freq": 0,\n                    "rnd_seed": 91648253,\n                    "ccmin_mode": 2,\n                    "phase_saving": 2,\n                    "rnd_init": false,\n                    "luby": true,\n                    "rfirst": 100,\n                    "rinc": 2,\n                    "gc_frac": 0.20,\n                    "min_learnts": 0\n                }\n            }\n        }\n    }\n}\n	solve_limited: [\b]\nSAT\n97 68743 main.cpp:52] \nI20220113 23:11:58.613184 68743 main.cpp:63] Input file: "./resources/cnf/sat_par8-1-c.cnf"\nI20220113 23:11:58.613739 68743 Tracer.cpp:8] Registered event: Resolve NaiveSolve\nI20220113 23:11:58.613759 68743 Tracer.cpp:8] Registered event: Resolve SimpSolver\nI20220113 23:11:58.613843 68743 SimpSolver.cpp:46] Stats before preprocess: 254 64\nI20220113 23:11:58.614068 68743 Tracer.cpp:28] solver->parse_cnf(input) took 0.000302889s\nI20220113 23:11:58.614454 68743 Tracer.cpp:28] SimpSolver::solve_limited took 8.3135e-05s\nI20220113 23:11:58.614466 68743 Tracer.cpp:28] solver->solve_limited() took 0.000388365s\nI20220113 23:11:58.614475 68743 Tracer.cpp:28] solve->solve(input) took 0.000726166s\nI20220113 23:11:58.614485 68743 Tracer.cpp:81] Tracing summary:\n\t[Quantiles]\tsolve->solve(input): total samples: 1 total time: 0.00073s\n\t\tMin: 0.00073s Max: 0.00073s\n\t\t[ 0.00073 ]\n\t[Quantiles]\tsolver->solve_limited(): total samples: 1 total time: 0.00039s\n\t\tMin: 0.00039s Max: 0.00039s\n\t\t[ 0.00039 ]\n\t[Quantiles]\tSimpSolver::solve_limited: total samples: 1 total time: 0.00008s\n\t\tMin: 0.00008s Max: 0.00008s\n\t\t[ 0.00008 ]\n\t[Quantiles]\tsolver->parse_cnf(input): total samples: 1 total time: 0.00030s\n\t\tMin: 0.00030s Max: 0.00030s\n\t\t[ 0.00030 ]\n\t[Event]\t\tResolve SimpSolver: total samples: 1\n\t[Event]\t\tResolve NaiveSolve: total samples: 1\nI20220113 23:11:58.614488 68743 main.cpp:77] SAT\n
21	./resources/cnf/sat_aim-50-1_6-yes1-4.cnf	./resources/config/naive.json	./artifacts-infra/logs/1642104718-224221956.txt	de855d1ee48b9b1956f716a05c6009a832917e15	PASSED	1970-01-01 03:41:21	1970-01-01 03:41:21	Naive solver tests (no RBS)	{\n    "solve_type": "NaiveSolve",\n    "naive_solve_config": {\n        "solver_config": {\n            "solver_type": "SimpSolver",\n            "simp_solver_config": {\n                "use_asymm": false,\n                "use_rcheck": false,\n                "use_elim": true,\n                "grow": 0,\n                "clause_lim": 20,\n                "subsumption_lim": 1000,\n                "simp_garbage_frac": 0.5,\n                "minisat_cli_config": {\n                    "verbosity_level": 0,\n                    "preprocessing": true,\n                    "cpu_limit": 0,\n                    "mem_limit": 0\n                },\n                "base_solver_config": {\n                    "var_decay": 0.95,\n                    "cla_decay": 0.999,\n                    "rnd_freq": 0,\n                    "rnd_seed": 91648253,\n                    "ccmin_mode": 2,\n                    "phase_saving": 2,\n                    "rnd_init": false,\n                    "luby": true,\n                    "rfirst": 100,\n                    "rinc": 2,\n                    "gc_frac": 0.20,\n                    "min_learnts": 0\n                }\n            }\n        }\n    }\n}\n	solve_limited: [\b]\nSAT\n58 68749 main.cpp:52] \nI20220113 23:11:58.613938 68749 main.cpp:63] Input file: "./resources/cnf/sat_aim-50-1_6-yes1-4.cnf"\nI20220113 23:11:58.614482 68749 Tracer.cpp:8] Registered event: Resolve NaiveSolve\nI20220113 23:11:58.614500 68749 Tracer.cpp:8] Registered event: Resolve SimpSolver\nI20220113 23:11:58.614550 68749 SimpSolver.cpp:46] Stats before preprocess: 80 50\nI20220113 23:11:58.614593 68749 Tracer.cpp:28] solver->parse_cnf(input) took 8.6468e-05s\nI20220113 23:11:58.614677 68749 Tracer.cpp:28] SimpSolver::solve_limited took 3.286e-06s\nI20220113 23:11:58.614687 68749 Tracer.cpp:28] solver->solve_limited() took 8.5717e-05s\nI20220113 23:11:58.614696 68749 Tracer.cpp:28] solve->solve(input) took 0.000202926s\nI20220113 23:11:58.614704 68749 Tracer.cpp:81] Tracing summary:\n\t[Quantiles]\tsolve->solve(input): total samples: 1 total time: 0.00020s\n\t\tMin: 0.00020s Max: 0.00020s\n\t\t[ 0.00020 ]\n\t[Quantiles]\tsolver->solve_limited(): total samples: 1 total time: 0.00009s\n\t\tMin: 0.00009s Max: 0.00009s\n\t\t[ 0.00009 ]\n\t[Quantiles]\tSimpSolver::solve_limited: total samples: 1 total time: 0.00000s\n\t\tMin: 0.00000s Max: 0.00000s\n\t\t[ 0.00000 ]\n\t[Quantiles]\tsolver->parse_cnf(input): total samples: 1 total time: 0.00009s\n\t\tMin: 0.00009s Max: 0.00009s\n\t\t[ 0.00009 ]\n\t[Event]\t\tResolve SimpSolver: total samples: 1\n\t[Event]\t\tResolve NaiveSolve: total samples: 1\nI20220113 23:11:58.614707 68749 main.cpp:77] SAT\n
22	./resources/cnf/unsat_dubois21.cnf	./resources/config/naive.json	./artifacts-infra/logs/1642104718214644170.txt	de855d1ee48b9b1956f716a05c6009a832917e15	PASSED	1970-01-01 03:41:21	1970-01-01 03:41:21	Naive solver tests (no RBS)	{\n    "solve_type": "NaiveSolve",\n    "naive_solve_config": {\n        "solver_config": {\n            "solver_type": "SimpSolver",\n            "simp_solver_config": {\n                "use_asymm": false,\n                "use_rcheck": false,\n                "use_elim": true,\n                "grow": 0,\n                "clause_lim": 20,\n                "subsumption_lim": 1000,\n                "simp_garbage_frac": 0.5,\n                "minisat_cli_config": {\n                    "verbosity_level": 0,\n                    "preprocessing": true,\n                    "cpu_limit": 0,\n                    "mem_limit": 0\n                },\n                "base_solver_config": {\n                    "var_decay": 0.95,\n                    "cla_decay": 0.999,\n                    "rnd_freq": 0,\n                    "rnd_seed": 91648253,\n                    "ccmin_mode": 2,\n                    "phase_saving": 2,\n                    "rnd_init": false,\n                    "luby": true,\n                    "rfirst": 100,\n                    "rinc": 2,\n                    "gc_frac": 0.20,\n                    "min_learnts": 0\n                }\n            }\n        }\n    }\n}\n	solve_limited: [\b]\nUNSAT\n 68752 main.cpp:52] \nI20220113 23:11:58.614383 68752 main.cpp:63] Input file: "./resources/cnf/unsat_dubois21.cnf"\nI20220113 23:11:58.614936 68752 Tracer.cpp:8] Registered event: Resolve NaiveSolve\nI20220113 23:11:58.614953 68752 Tracer.cpp:8] Registered event: Resolve SimpSolver\nI20220113 23:11:58.615016 68752 SimpSolver.cpp:46] Stats before preprocess: 168 63\nI20220113 23:11:58.615161 68752 Tracer.cpp:28] solver->parse_cnf(input) took 0.000202535s\nI20220113 23:11:58.615343 68752 Tracer.cpp:28] SimpSolver::solve_limited took 1.45e-07s\nI20220113 23:11:58.615355 68752 Tracer.cpp:28] solver->solve_limited() took 0.000163451s\nI20220113 23:11:58.615362 68752 Tracer.cpp:28] solve->solve(input) took 0.00041575s\nI20220113 23:11:58.615371 68752 Tracer.cpp:81] Tracing summary:\n\t[Quantiles]\tsolve->solve(input): total samples: 1 total time: 0.00042s\n\t\tMin: 0.00042s Max: 0.00042s\n\t\t[ 0.00042 ]\n\t[Quantiles]\tsolver->solve_limited(): total samples: 1 total time: 0.00016s\n\t\tMin: 0.00016s Max: 0.00016s\n\t\t[ 0.00016 ]\n\t[Quantiles]\tSimpSolver::solve_limited: total samples: 1 total time: 0.00000s\n\t\tMin: 0.00000s Max: 0.00000s\n\t\t[ 0.00000 ]\n\t[Quantiles]\tsolver->parse_cnf(input): total samples: 1 total time: 0.00020s\n\t\tMin: 0.00020s Max: 0.00020s\n\t\t[ 0.00020 ]\n\t[Event]\t\tResolve SimpSolver: total samples: 1\n\t[Event]\t\tResolve NaiveSolve: total samples: 1\nI20220113 23:11:58.615373 68752 main.cpp:73] UNSAT\n
23	./resources/cnf/unsat_dubois20.cnf	./resources/config/simp_rbs.json	./artifacts-infra/logs/1642104720-469649304.txt	de855d1ee48b9b1956f716a05c6009a832917e15	PASSED	1970-01-01 03:41:23	1970-01-01 03:41:23	RBSSearch solver tests (RBS, sequential solve)	{\n    "solve_type": "RBSSolve",\n    "rbs_solve_config": {\n        "random_seed": 1337,\n        "algorithm_config": {\n            "algorithm_type": "EAAlgorithm",\n            "ea_algorithm_config": {\n                "mutation_config": {\n                    "mutation_type": "DoerrMutation",\n                    "doerr_mutation_config": {\n                        "beta": 3.0\n                    }\n                },\n                "selector_config": {\n                    "selector_type": "BestSelector"\n                },\n                "base_algorithm_config": {\n                    "solver_config": {\n                        "solver_type": "ParSolver",\n                        "par_solver_config": {\n                            "max_threads": 20,\n                            "solver_config": {\n                                "solver_type": "SimpSolver",\n                                "simp_solver_config": {\n                                    "use_asymm": false,\n                                    "use_rcheck": false,\n                                    "use_elim": true,\n                                    "grow": 0,\n                                    "clause_lim": 20,\n                                    "subsumption_lim": 1000,\n                                    "simp_garbage_frac": 0.5,\n                                    "minisat_cli_config": {\n                                        "verbosity_level": 0,\n                                        "preprocessing": true,\n                                        "cpu_limit": 0,\n                                        "mem_limit": 0\n                                    },\n                                    "base_solver_config": {\n                                        "var_decay": 0.95,\n                                        "cla_decay": 0.999,\n                                        "rnd_freq": 0,\n                                        "rnd_seed": 91648253,\n                                        "ccmin_mode": 2,\n                                        "phase_saving": 2,\n                                        "rnd_init": false,\n                                        "luby": true,\n                                        "rfirst": 100,\n                                        "rinc": 2,\n                                        "gc_frac": 0.20,\n                                        "min_learnts": 0\n                                    }\n                                }\n                            }\n                        }\n                    },\n                    "limit_config": {\n                        "limit_type": "ConjLimit",\n                        "conj_limit_config": {\n                            "limit_config": [\n                                {\n                                    "limit_type": "ResourceLimit",\n                                    "resource_limit_config": {\n                                        "memory_limit_kb": 0,\n                                        "time_limit_sec": 300\n                                    }\n                                },\n                                {\n                                    "limit_type": "PointsLimit",\n                                    "points_limit_config": {\n                                        "max_points_visited": 6000\n                                    }\n                                }\n                            ]\n                        }\n                    },\n                    "instance_config": {\n                        "omega_x": 20,\n                        "heuristic_size": 200,\n                        "max_cache_size": 1000,\n                        "sampling_config": {\n                            "base_count": 4000,\n                            "max_steps": 3,\n                            "scale": 2\n                        }\n                    }\n                }\n            }\n        },\n        "solver_config": {\n            "solver_type": "SimpSolver",\n            "simp_solver_config": {\n                "use_asymm": false,\n                "use_rcheck": false,\n                "use_elim": true,\n                "grow": 0,\n                "clause_lim": 20,\n                "subsumption_lim": 1000,\n                "simp_garbage_frac": 0.5,\n                "minisat_cli_config": {\n                    "verbosity_level": 0,\n                    "preprocessing": true,\n                    "cpu_limit": 0,\n                    "mem_limit": 0\n                },\n                "base_solver_config": {\n                    "var_decay": 0.95,\n                    "cla_decay": 0.999,\n                    "rnd_freq": 0,\n                    "rnd_seed": 91648253,\n                    "ccmin_mode": 2,\n                    "phase_saving": 2,\n                    "rnd_init": false,\n                    "luby": true,\n                    "rfirst": 100,\n                    "rinc": 2,\n                    "gc_frac": 0.20,\n                    "min_learnts": 0\n                }\n            }\n        }\n    }\n}\n	UNSAT\n113 23:12:00.755089 68806 main.cpp:52] \nI20220113 23:12:00.755267 68806 main.cpp:63] Input file: "./resources/cnf/unsat_dubois20.cnf"\nI20220113 23:12:00.755923 68806 Tracer.cpp:8] Registered event: Resolve RBSSolve\nI20220113 23:12:00.755944 68806 Tracer.cpp:8] Registered event: Resolve SimpSolver\nI20220113 23:12:00.755951 68806 Tracer.cpp:8] Registered event: Resolve SimpSolver\nI20220113 23:12:00.755957 68806 Tracer.cpp:8] Registered event: Resolve SimpSolver\nI20220113 23:12:00.755962 68806 Tracer.cpp:8] Registered event: Resolve SimpSolver\nI20220113 23:12:00.755967 68806 Tracer.cpp:8] Registered event: Resolve SimpSolver\nI20220113 23:12:00.755973 68806 Tracer.cpp:8] Registered event: Resolve SimpSolver\nI20220113 23:12:00.755978 68806 Tracer.cpp:8] Registered event: Resolve SimpSolver\nI20220113 23:12:00.755983 68806 Tracer.cpp:8] Registered event: Resolve SimpSolver\nI20220113 23:12:00.755988 68806 Tracer.cpp:8] Registered event: Resolve SimpSolver\nI20220113 23:12:00.755993 68806 Tracer.cpp:8] Registered event: Resolve SimpSolver\nI20220113 23:12:00.755998 68806 Tracer.cpp:8] Registered event: Resolve SimpSolver\nI20220113 23:12:00.756003 68806 Tracer.cpp:8] Registered event: Resolve SimpSolver\nI20220113 23:12:00.756008 68806 Tracer.cpp:8] Registered event: Resolve SimpSolver\nI20220113 23:12:00.756013 68806 Tracer.cpp:8] Registered event: Resolve SimpSolver\nI20220113 23:12:00.756018 68806 Tracer.cpp:8] Registered event: Resolve SimpSolver\nI20220113 23:12:00.756023 68806 Tracer.cpp:8] Registered event: Resolve SimpSolver\nI20220113 23:12:00.756028 68806 Tracer.cpp:8] Registered event: Resolve SimpSolver\nI20220113 23:12:00.756033 68806 Tracer.cpp:8] Registered event: Resolve SimpSolver\nI20220113 23:12:00.756038 68806 Tracer.cpp:8] Registered event: Resolve SimpSolver\nI20220113 23:12:00.756043 68806 Tracer.cpp:8] Registered event: Resolve SimpSolver\nI20220113 23:12:00.756369 68806 Tracer.cpp:8] Registered event: Resolve ParSolver\nI20220113 23:12:00.756377 68806 Tracer.cpp:8] Registered event: Resolve ResourceLimit\nI20220113 23:12:00.756381 68806 Tracer.cpp:8] Registered event: Resolve PointsLimit\nI20220113 23:12:00.756383 68806 Tracer.cpp:8] Registered event: Resolve ConjLimit\nI20220113 23:12:00.756386 68806 Tracer.cpp:8] Registered event: Resolve DoerrMutation\nI20220113 23:12:00.756412 68806 Tracer.cpp:8] Registered event: Resolve BestSelector\nI20220113 23:12:00.756415 68806 Tracer.cpp:8] Registered event: Resolve EAAlgorithm\nI20220113 23:12:00.756481 68806 SimpSolver.cpp:46] Stats before preprocess: 160 60\nI20220113 23:12:00.759385 68806 Tracer.cpp:28] algorithm_solver.parse_cnf(input) took 0.00296542s\nI20220113 23:12:00.759409 68806 Algorithm.cpp:58] Heuristic init:\n{ prop: 0, var: 59 }\n{ prop: 0, var: 58 }\n{ prop: 0, var: 57 }\n{ prop: 0, var: 56 }\n{ prop: 0, var: 55 }\n{ prop: 0, var: 54 }\n{ prop: 0, var: 53 }\n{ prop: 0, var: 52 }\n{ prop: 0, var: 51 }\n{ prop: 0, var: 50 }\n{ prop: 0, var: 49 }\n{ prop: 0, var: 48 }\n{ prop: 0, var: 47 }\n{ prop: 0, var: 46 }\n{ prop: 0, var: 45 }\n{ prop: 0, var: 44 }\n{ prop: 0, var: 43 }\n{ prop: 0, var: 42 }\n{ prop: 0, var: 41 }\n{ prop: 0, var: 40 }\n{ prop: 0, var: 39 }\n{ prop: 0, var: 38 }\n{ prop: 0, var: 37 }\n{ prop: 0, var: 36 }\n{ prop: 0, var: 35 }\n{ prop: 0, var: 34 }\n{ prop: 0, var: 33 }\n{ prop: 0, var: 32 }\n{ prop: 0, var: 31 }\n{ prop: 0, var: 30 }\n{ prop: 0, var: 29 }\n{ prop: 0, var: 28 }\n{ prop: 0, var: 27 }\n{ prop: 0, var: 26 }\n{ prop: 0, var: 25 }\n{ prop: 0, var: 24 }\n{ prop: 0, var: 23 }\n{ prop: 0, var: 22 }\n{ prop: 0, var: 21 }\n{ prop: 0, var: 20 }\n{ prop: 0, var: 19 }\n{ prop: 0, var: 18 }\n{ prop: 0, var: 17 }\n{ prop: 0, var: 16 }\n{ prop: 0, var: 15 }\n{ prop: 0, var: 14 }\n{ prop: 0, var: 13 }\n{ prop: 0, var: 12 }\n{ prop: 0, var: 11 }\n{ prop: 0, var: 10 }\n{ prop: 0, var: 9 }\n{ prop: 0, var: 8 }\n{ prop: 0, var: 7 }\n{ prop: 0, var: 6 }\n{ prop: 0, var: 5 }\n{ prop: 0, var: 4 }\n{ prop: 0, var: 3 }\n{ prop: 0, var: 2 }\n{ prop: 0, var: 1 }\n{ prop: 0, var: 0 }\nI20220113 23:12:00.759704 68806 Algorithm.cpp:84] [Thread 60] [Iter 0][Points 2] Best instance: Fit: 1 Size: 1 and fitness: 1 Vars: [ 44 ] samples: 2 coverage: 100%\nI20220113 23:12:00.763650 68806 Algorithm.cpp:84] [Thread 60] [Iter 100][Points 102] Best instance: Fit: 1 Size: 1 and fitness: 1 Vars: [ 44 ] samples: 2 coverage: 100%\nI20220113 23:12:00.766898 68806 Algorithm.cpp:84] [Thread 60] [Iter 200][Points 202] Best instance: Fit: 1 Size: 1 and fitness: 1 Vars: [ 44 ] samples: 2 coverage: 100%\nI20220113 23:12:00.770195 68806 Algorithm.cpp:84] [Thread 60] [Iter 300][Points 302] Best instance: Fit: 1 Size: 1 and fitness: 1 Vars: [ 44 ] samples: 2 coverage: 100%\nI20220113 23:12:00.773326 68806 Algorithm.cpp:84] [Thread 60] [Iter 400][Points 402] Best instance: Fit: 1 Size: 1 and fitness: 1 Vars: [ 44 ] samples: 2 coverage: 100%\nI20220113 23:12:00.776513 68806 Algorithm.cpp:84] [Thread 60] [Iter 500][Points 502] Best instance: Fit: 1 Size: 1 and fitness: 1 Vars: [ 44 ] samples: 2 coverage: 100%\nI20220113 23:12:00.779769 68806 Algorithm.cpp:84] [Thread 60] [Iter 600][Points 602] Best instance: Fit: 1 Size: 1 and fitness: 1 Vars: [ 44 ] samples: 2 coverage: 100%\nI20220113 23:12:00.783113 68806 Algorithm.cpp:84] [Thread 60] [Iter 700][Points 702] Best instance: Fit: 1 Size: 1 and fitness: 1 Vars: [ 44 ] samples: 2 coverage: 100%\nI20220113 23:12:00.786501 68806 Algorithm.cpp:84] [Thread 60] [Iter 800][Points 802] Best instance: Fit: 1 Size: 1 and fitness: 1 Vars: [ 44 ] samples: 2 coverage: 100%\nI20220113 23:12:00.789901 68806 Algorithm.cpp:84] [Thread 60] [Iter 900][Points 902] Best instance: Fit: 1 Size: 1 and fitness: 1 Vars: [ 44 ] samples: 2 coverage: 100%\nI20220113 23:12:00.793222 68806 Algorithm.cpp:84] [Thread 60] [Iter 1000][Points 1002] Best instance: Fit: 1 Size: 1 and fitness: 1 Vars: [ 44 ] samples: 2 coverage: 100%\nI20220113 23:12:00.796591 68806 Algorithm.cpp:84] [Thread 60] [Iter 1100][Points 1102] Best instance: Fit: 1 Size: 1 and fitness: 1 Vars: [ 44 ] samples: 2 coverage: 100%\nI20220113 23:12:00.800026 68806 Algorithm.cpp:84] [Thread 60] [Iter 1200][Points 1202] Best instance: Fit: 1 Size: 1 and fitness: 1 Vars: [ 44 ] samples: 2 coverage: 100%\nI20220113 23:12:00.803486 68806 Algorithm.cpp:84] [Thread 60] [Iter 1300][Points 1302] Best instance: Fit: 1 Size: 1 and fitness: 1 Vars: [ 44 ] samples: 2 coverage: 100%\nI20220113 23:12:00.806893 68806 Algorithm.cpp:84] [Thread 60] [Iter 1400][Points 1402] Best instance: Fit: 1 Size: 1 and fitness: 1 Vars: [ 44 ] samples: 2 coverage: 100%\nI20220113 23:12:00.810274 68806 Algorithm.cpp:84] [Thread 60] [Iter 1500][Points 1502] Best instance: Fit: 1 Size: 1 and fitness: 1 Vars: [ 44 ] samples: 2 coverage: 100%\nI20220113 23:12:00.813627 68806 Algorithm.cpp:84] [Thread 60] [Iter 1600][Points 1602] Best instance: Fit: 1 Size: 1 and fitness: 1 Vars: [ 44 ] samples: 2 coverage: 100%\nI20220113 23:12:00.816915 68806 Algorithm.cpp:84] [Thread 60] [Iter 1700][Points 1702] Best instance: Fit: 1 Size: 1 and fitness: 1 Vars: [ 44 ] samples: 2 coverage: 100%\nI20220113 23:12:00.820211 68806 Algorithm.cpp:84] [Thread 60] [Iter 1800][Points 1802] Best instance: Fit: 1 Size: 1 and fitness: 1 Vars: [ 44 ] samples: 2 coverage: 100%\nI20220113 23:12:00.823594 68806 Algorithm.cpp:84] [Thread 60] [Iter 1900][Points 1902] Best instance: Fit: 1 Size: 1 and fitness: 1 Vars: [ 44 ] samples: 2 coverage: 100%\nI20220113 23:12:00.826830 68806 Algorithm.cpp:84] [Thread 60] [Iter 2000][Points 2002] Best instance: Fit: 1 Size: 1 and fitness: 1 Vars: [ 44 ] samples: 2 coverage: 100%\nI20220113 23:12:00.830027 68806 Algorithm.cpp:84] [Thread 60] [Iter 2100][Points 2102] Best instance: Fit: 1 Size: 1 and fitness: 1 Vars: [ 44 ] samples: 2 coverage: 100%\nI20220113 23:12:00.833338 68806 Algorithm.cpp:84] [Thread 60] [Iter 2200][Points 2202] Best instance: Fit: 1 Size: 1 and fitness: 1 Vars: [ 44 ] samples: 2 coverage: 100%\nI20220113 23:12:00.836628 68806 Algorithm.cpp:84] [Thread 60] [Iter 2300][Points 2302] Best instance: Fit: 1 Size: 1 and fitness: 1 Vars: [ 44 ] samples: 2 coverage: 100%\nI20220113 23:12:00.839699 68806 Algorithm.cpp:84] [Thread 60] [Iter 2400][Points 2402] Best instance: Fit: 1 Size: 1 and fitness: 1 Vars: [ 44 ] samples: 2 coverage: 100%\nI20220113 23:12:00.843032 68806 Algorithm.cpp:84] [Thread 60] [Iter 2500][Points 2502] Best instance: Fit: 1 Size: 1 and fitness: 1 Vars: [ 44 ] samples: 2 coverage: 100%\nI20220113 23:12:00.846357 68806 Algorithm.cpp:84] [Thread 60] [Iter 2600][Points 2602] Best instance: Fit: 1 Size: 1 and fitness: 1 Vars: [ 44 ] samples: 2 coverage: 100%\nI20220113 23:12:00.849689 68806 Algorithm.cpp:84] [Thread 60] [Iter 2700][Points 2702] Best instance: Fit: 1 Size: 1 and fitness: 1 Vars: [ 44 ] samples: 2 coverage: 100%\nI20220113 23:12:00.852988 68806 Algorithm.cpp:84] [Thread 60] [Iter 2800][Points 2802] Best instance: Fit: 1 Size: 1 and fitness: 1 Vars: [ 44 ] samples: 2 coverage: 100%\nI20220113 23:12:00.856307 68806 Algorithm.cpp:84] [Thread 60] [Iter 2900][Points 2902] Best instance: Fit: 1 Size: 1 and fitness: 1 Vars: [ 44 ] samples: 2 coverage: 100%\nI20220113 23:12:00.859325 68806 Algorithm.cpp:84] [Thread 60] [Iter 3000][Points 3002] Best instance: Fit: 1 Size: 1 and fitness: 1 Vars: [ 44 ] samples: 2 coverage: 100%\nI20220113 23:12:00.862905 68806 Algorithm.cpp:84] [Thread 60] [Iter 3100][Points 3102] Best instance: Fit: 1 Size: 1 and fitness: 1 Vars: [ 44 ] samples: 2 coverage: 100%\nI20220113 23:12:00.866269 68806 Algorithm.cpp:84] [Thread 60] [Iter 3200][Points 3202] Best instance: Fit: 1 Size: 1 and fitness: 1 Vars: [ 44 ] samples: 2 coverage: 100%\nI20220113 23:12:00.869518 68806 Algorithm.cpp:84] [Thread 60] [Iter 3300][Points 3302] Best instance: Fit: 1 Size: 1 and fitness: 1 Vars: [ 44 ] samples: 2 coverage: 100%\nI20220113 23:12:00.872740 68806 Algorithm.cpp:84] [Thread 60] [Iter 3400][Points 3402] Best instance: Fit: 1 Size: 1 and fitness: 1 Vars: [ 44 ] samples: 2 coverage: 100%\nI20220113 23:12:00.875905 68806 Algorithm.cpp:84] [Thread 60] [Iter 3500][Points 3502] Best instance: Fit: 1 Size: 1 and fitness: 1 Vars: [ 44 ] samples: 2 coverage: 100%\nI20220113 23:12:00.878865 68806 Algorithm.cpp:84] [Thread 60] [Iter 3600][Points 3602] Best instance: Fit: 1 Size: 1 and fitness: 1 Vars: [ 44 ] samples: 2 coverage: 100%\nI20220113 23:12:00.881824 68806 Algorithm.cpp:84] [Thread 60] [Iter 3700][Points 3702] Best instance: Fit: 1 Size: 1 and fitness: 1 Vars: [ 44 ] samples: 2 coverage: 100%\nI20220113 23:12:00.884841 68806 Algorithm.cpp:84] [Thread 60] [Iter 3800][Points 3802] Best instance: Fit: 1 Size: 1 and fitness: 1 Vars: [ 44 ] samples: 2 coverage: 100%\nI20220113 23:12:00.887791 68806 Algorithm.cpp:84] [Thread 60] [Iter 3900][Points 3902] Best instance: Fit: 1 Size: 1 and fitness: 1 Vars: [ 44 ] samples: 2 coverage: 100%\nI20220113 23:12:00.890744 68806 Algorithm.cpp:84] [Thread 60] [Iter 4000][Points 4002] Best instance: Fit: 1 Size: 1 and fitness: 1 Vars: [ 44 ] samples: 2 coverage: 100%\nI20220113 23:12:00.893752 68806 Algorithm.cpp:84] [Thread 60] [Iter 4100][Points 4102] Best instance: Fit: 1 Size: 1 and fitness: 1 Vars: [ 44 ] samples: 2 coverage: 100%\nI20220113 23:12:00.896667 68806 Algorithm.cpp:84] [Thread 60] [Iter 4200][Points 4202] Best instance: Fit: 1 Size: 1 and fitness: 1 Vars: [ 44 ] samples: 2 coverage: 100%\nI20220113 23:12:00.899581 68806 Algorithm.cpp:84] [Thread 60] [Iter 4300][Points 4302] Best instance: Fit: 1 Size: 1 and fitness: 1 Vars: [ 44 ] samples: 2 coverage: 100%\nI20220113 23:12:00.902562 68806 Algorithm.cpp:84] [Thread 60] [Iter 4400][Points 4402] Best instance: Fit: 1 Size: 1 and fitness: 1 Vars: [ 44 ] samples: 2 coverage: 100%\nI20220113 23:12:00.905515 68806 Algorithm.cpp:84] [Thread 60] [Iter 4500][Points 4502] Best instance: Fit: 1 Size: 1 and fitness: 1 Vars: [ 44 ] samples: 2 coverage: 100%\nI20220113 23:12:00.908437 68806 Algorithm.cpp:84] [Thread 60] [Iter 4600][Points 4602] Best instance: Fit: 1 Size: 1 and fitness: 1 Vars: [ 44 ] samples: 2 coverage: 100%\nI20220113 23:12:00.911392 68806 Algorithm.cpp:84] [Thread 60] [Iter 4700][Points 4702] Best instance: Fit: 1 Size: 1 and fitness: 1 Vars: [ 44 ] samples: 2 coverage: 100%\nI20220113 23:12:00.914341 68806 Algorithm.cpp:84] [Thread 60] [Iter 4800][Points 4802] Best instance: Fit: 1 Size: 1 and fitness: 1 Vars: [ 44 ] samples: 2 coverage: 100%\nI20220113 23:12:00.917289 68806 Algorithm.cpp:84] [Thread 60] [Iter 4900][Points 4902] Best instance: Fit: 1 Size: 1 and fitness: 1 Vars: [ 44 ] samples: 2 coverage: 100%\nI20220113 23:12:00.920229 68806 Algorithm.cpp:84] [Thread 60] [Iter 5000][Points 5002] Best instance: Fit: 1 Size: 1 and fitness: 1 Vars: [ 44 ] samples: 2 coverage: 100%\nI20220113 23:12:00.923254 68806 Algorithm.cpp:84] [Thread 60] [Iter 5100][Points 5102] Best instance: Fit: 1 Size: 1 and fitness: 1 Vars: [ 44 ] samples: 2 coverage: 100%\nI20220113 23:12:00.926492 68806 Algorithm.cpp:84] [Thread 60] [Iter 5200][Points 5202] Best instance: Fit: 1 Size: 1 and fitness: 1 Vars: [ 44 ] samples: 2 coverage: 100%\nI20220113 23:12:00.929704 68806 Algorithm.cpp:84] [Thread 60] [Iter 5300][Points 5302] Best instance: Fit: 1 Size: 1 and fitness: 1 Vars: [ 44 ] samples: 2 coverage: 100%\nI20220113 23:12:00.932932 68806 Algorithm.cpp:84] [Thread 60] [Iter 5400][Points 5402] Best instance: Fit: 1 Size: 1 and fitness: 1 Vars: [ 44 ] samples: 2 coverage: 100%\nI20220113 23:12:00.936172 68806 Algorithm.cpp:84] [Thread 60] [Iter 5500][Points 5502] Best instance: Fit: 1 Size: 1 and fitness: 1 Vars: [ 44 ] samples: 2 coverage: 100%\nI20220113 23:12:00.939129 68806 Algorithm.cpp:84] [Thread 60] [Iter 5600][Points 5602] Best instance: Fit: 1 Size: 1 and fitness: 1 Vars: [ 44 ] samples: 2 coverage: 100%\nI20220113 23:12:00.942039 68806 Algorithm.cpp:84] [Thread 60] [Iter 5700][Points 5702] Best instance: Fit: 1 Size: 1 and fitness: 1 Vars: [ 44 ] samples: 2 coverage: 100%\nI20220113 23:12:00.944939 68806 Algorithm.cpp:84] [Thread 60] [Iter 5800][Points 5802] Best instance: Fit: 1 Size: 1 and fitness: 1 Vars: [ 44 ] samples: 2 coverage: 100%\nI20220113 23:12:00.947883 68806 Algorithm.cpp:84] [Thread 60] [Iter 5900][Points 5902] Best instance: Fit: 1 Size: 1 and fitness: 1 Vars: [ 44 ] samples: 2 coverage: 100%\nI20220113 23:12:00.950758 68806 PointsLimit.cpp:12] The number of visited points reached the specified maximum\nI20220113 23:12:00.950763 68806 Tracer.cpp:28] algorithm->process() took 0.191348s\nI20220113 23:12:00.950767 68806 RBSSolve.cpp:24] Number of points visited: 6000\nI20220113 23:12:00.950770 68806 RBSSolve.cpp:25] The best backdoor is: Fit: 1 Size: 1 and fitness: 1 Vars: [ 44 ] samples: 2 coverage: 100%\nI20220113 23:12:00.950784 68806 Tracer.cpp:8] Registered event: Resolve SimpSolver\nI20220113 23:12:00.950958 68806 Tracer.cpp:28] solver->parse_cnf(input) took 0.000169339s\nI20220113 23:12:00.950968 68806 Tracer.cpp:28] Solver::final_solve took 1.201e-06s\nI20220113 23:12:00.950973 68806 Solve.cpp:50] Conflicts: 2, total: 2\nI20220113 23:12:00.950974 68806 Solve.cpp:51] Conflict rate is: 1\nI20220113 23:12:00.950978 68806 Solve.cpp:56] Unknown: 0, interrupted: 0\nI20220113 23:12:00.951267 68806 Tracer.cpp:28] solve->solve(input) took 0.195278s\nI20220113 23:12:00.951292 68806 Tracer.cpp:81] Tracing summary:\n\t[Quantiles]\tsolve->solve(input): total samples: 1 total time: 0.19528s\n\t\tMin: 0.19528s Max: 0.19528s\n\t\t[ 0.19528 ]\n\t[Quantiles]\talgorithm->process(): total samples: 1 total time: 0.19135s\n\t\tMin: 0.19135s Max: 0.19135s\n\t\t[ 0.19135 ]\n\t[Event]\t\tResolve SimpSolver: total samples: 21\n\t[Quantiles]\talgorithm_solver.parse_cnf(input): total samples: 1 total time: 0.00297s\n\t\tMin: 0.00297s Max: 0.00297s\n\t\t[ 0.00297 ]\n\t[Event]\t\tResolve EAAlgorithm: total samples: 1\n\t[Quantiles]\tSolver::final_solve: total samples: 1 total time: 0.00000s\n\t\tMin: 0.00000s Max: 0.00000s\n\t\t[ 0.00000 ]\n\t[Event]\t\tResolve ParSolver: total samples: 1\n\t[Event]\t\tResolve PointsLimit: total samples: 1\n\t[Event]\t\tResolve ConjLimit: total samples: 1\n\t[Event]\t\tResolve ResourceLimit: total samples: 1\n\t[Event]\t\tResolve DoerrMutation: total samples: 1\n\t[Event]\t\tResolve RBSSolve: total samples: 1\n\t[Event]\t\tResolve BestSelector: total samples: 1\n\t[Quantiles]\tsolver->parse_cnf(input): total samples: 1 total time: 0.00017s\n\t\tMin: 0.00017s Max: 0.00017s\n\t\t[ 0.00017 ]\nI20220113 23:12:00.951295 68806 main.cpp:73] UNSAT\n
\.


--
-- Name: launches_launch_id_seq; Type: SEQUENCE SET; Schema: public; Owner: dzhiblavi
--

SELECT pg_catalog.setval('public.launches_launch_id_seq', 23, true);


--
-- Name: launches launches_pkey; Type: CONSTRAINT; Schema: public; Owner: dzhiblavi
--

ALTER TABLE ONLY public.launches
    ADD CONSTRAINT launches_pkey PRIMARY KEY (launch_id);


--
-- PostgreSQL database dump complete
--

